<?xml version="1.0" standalone="no"?>
<!DOCTYPE svg PUBLIC "-//W3C//DTD SVG 20010904//EN"
 "http://www.w3.org/TR/2001/REC-SVG-20010904/DTD/svg10.dtd">
<svg version="1.0" xmlns="http://www.w3.org/2000/svg"
 width="768.000000pt" height="768.000000pt" viewBox="0 0 768.000000 768.000000"
 preserveAspectRatio="xMidYMid meet">

<g transform="translate(0.000000,768.000000) scale(0.100000,-0.100000)"
fill="#000000" stroke="none">
<path d="M2790 5634 c-101 -38 -140 -88 -145 -185 -4 -66 -9 -79 -32 -79 -8 0
-44 -14 -79 -31 -81 -40 -156 -119 -195 -204 l-29 -65 0 -1240 0 -1241 34 -72
c19 -42 59 -101 95 -141 63 -72 66 -77 75 -161 12 -109 26 -155 46 -155 6 0
10 -7 10 -15 0 -8 5 -15 11 -15 6 0 9 -6 6 -12 -5 -16 22 -37 47 -38 11 0 16
-3 13 -6 -7 -7 28 -30 103 -67 l45 -22 979 -3 c629 -2 998 1 1033 8 175 32
324 175 392 375 17 53 21 95 26 350 3 160 7 331 9 380 3 61 0 92 -8 97 -7 5
-5 8 6 8 21 0 68 49 68 70 0 12 2 12 9 2 12 -19 21 34 21 124 l0 74 47 42 c25
24 80 79 122 122 42 44 108 113 148 153 63 65 82 91 124 175 5 10 11 43 15 75
3 32 9 70 14 85 7 21 3 35 -19 70 -30 46 -31 46 -158 180 -78 81 -83 89 -83
130 0 52 -29 137 -65 188 -24 35 -148 159 -205 205 -29 24 -105 61 -145 71
-28 7 -45 37 -45 81 0 14 -16 60 -36 101 -58 120 -158 201 -290 233 -27 6 -77
26 -111 44 -33 18 -75 37 -92 43 -28 10 -31 15 -31 54 0 102 -55 185 -137 207
-48 13 -81 7 -136 -22 -55 -30 -80 -77 -86 -161 l-6 -71 -71 -3 -71 -3 -7 32
c-3 17 -6 49 -6 71 0 119 -140 203 -244 145 -71 -40 -97 -86 -99 -176 l-2 -66
-71 -3 -71 -3 -7 78 c-7 91 -34 133 -107 171 -63 32 -123 22 -187 -33 -38 -32
-56 -75 -62 -145 l-5 -65 -70 0 -70 0 -5 70 c-6 81 -24 118 -81 159 -39 27
-98 41 -129 30z m64 -136 c23 -22 25 -31 31 -163 6 -134 6 -142 -15 -168 -25
-31 -64 -36 -92 -10 -16 14 -18 34 -18 167 0 121 3 156 16 174 19 28 46 28 78
0z m511 -3 c24 -23 25 -28 25 -171 0 -123 -3 -150 -17 -166 -19 -22 -52 -23
-79 -4 -17 13 -19 29 -22 168 -3 144 -2 154 18 176 27 28 45 28 75 -3z m506
-1 c23 -25 24 -30 22 -176 -1 -141 -3 -150 -24 -169 -29 -25 -45 -24 -74 6
-24 23 -25 29 -25 165 0 107 4 148 15 170 20 38 53 39 86 4z m508 0 c19 -24
21 -40 21 -166 0 -134 -1 -140 -25 -163 -29 -30 -49 -31 -75 -5 -18 18 -20 33
-20 168 0 117 3 152 16 170 21 30 58 28 83 -4z m-1727 -314 c5 -74 42 -126
110 -154 55 -23 97 -17 156 21 48 31 73 78 80 146 l5 48 76 -3 76 -3 5 -55 c7
-65 17 -87 64 -128 63 -55 159 -51 224 11 36 33 46 56 52 117 l5 55 78 3 77 3
0 -46 c0 -59 19 -104 59 -138 68 -57 154 -57 222 0 37 31 54 68 64 136 l7 48
75 -3 75 -3 3 -46 c9 -152 172 -227 286 -132 39 33 68 95 69 146 0 20 2 37 5
37 14 0 82 -40 96 -56 9 -11 27 -39 40 -64 21 -41 24 -60 27 -223 l4 -178 -43
-47 c-23 -26 -146 -158 -273 -294 l-230 -248 -742 0 c-808 0 -774 2 -774 -54
0 -52 -18 -51 726 -56 l693 -5 -57 -60 c-32 -33 -143 -152 -247 -265 -104
-113 -217 -234 -250 -269 l-60 -64 -381 6 c-330 5 -384 4 -402 -9 -26 -18 -28
-50 -5 -76 15 -17 39 -18 355 -18 186 0 338 -4 338 -8 0 -4 -16 -24 -36 -43
-75 -71 -112 -126 -119 -178 l-7 -50 -264 -3 c-284 -3 -283 -3 -284 -55 0 -48
26 -53 283 -53 222 0 238 -1 234 -17 -3 -10 -11 -43 -17 -73 -7 -30 -16 -72
-22 -93 l-9 -38 -217 3 c-197 3 -221 5 -264 25 -65 30 -137 99 -164 158 l-24
50 0 1066 c0 1177 -4 1107 64 1200 20 26 52 55 77 67 69 34 76 31 81 -38z
m2216 -115 c46 -50 82 -123 82 -164 0 -11 -22 -23 -65 -37 l-65 -20 0 105 c0
59 -4 121 -9 139 -5 17 -6 32 -1 32 4 0 30 -25 58 -55z m270 -344 c69 -35 142
-102 142 -130 0 -11 4 -22 9 -25 16 -10 18 -89 4 -148 -13 -60 -60 -130 -141
-215 -12 -11 -44 17 -213 184 -109 108 -199 200 -199 205 0 4 26 34 58 67 43
43 72 64 108 75 68 22 176 16 232 -13z m-236 -479 c131 -130 238 -242 238
-249 0 -6 -28 -41 -63 -79 l-63 -68 -30 21 c-43 31 -464 460 -464 473 0 15
120 140 134 140 6 0 118 -107 248 -238z m-392 -79 c42 -43 94 -98 117 -123
l42 -45 -86 -90 c-122 -127 -636 -657 -840 -865 l-172 -175 -32 19 c-19 11
-70 24 -123 30 l-91 12 -3 59 -3 60 87 95 c113 123 141 154 375 405 107 116
240 260 294 320 145 160 348 375 354 375 4 0 40 -35 81 -77z m269 -282 c31
-31 29 -43 -17 -88 -47 -46 -67 -52 -98 -28 -19 15 -19 15 4 34 12 11 22 23
22 28 0 4 14 17 30 28 16 11 30 26 30 33 0 17 7 15 29 -7z m-139 -126 c0 -8
-4 -15 -10 -15 -5 0 -7 7 -4 15 4 8 8 15 10 15 2 0 4 -7 4 -15z m-10 -35 c12
-8 11 -10 -7 -10 -13 0 -23 5 -23 10 0 13 11 13 30 0z m-40 -13 c0 -2 -15 -14
-32 -27 l-33 -23 24 26 c21 23 41 35 41 24z m-220 -238 c0 -5 -4 -7 -10 -4 -5
3 -10 1 -10 -6 0 -7 -3 -10 -6 -6 -8 7 4 27 17 27 5 0 9 -5 9 -11z m-50 -43
c0 -2 -7 -7 -16 -10 -8 -3 -12 -2 -9 4 6 10 25 14 25 6z m-49 -58 c-11 -18
-25 -34 -32 -37 -7 -2 0 13 16 33 34 45 44 47 16 4z m99 12 c0 -5 -5 -10 -11
-10 -5 0 -7 5 -4 10 3 6 8 10 11 10 2 0 4 -4 4 -10z m-180 -84 c0 -3 -4 -8
-10 -11 -5 -3 -10 -1 -10 4 0 6 5 11 10 11 6 0 10 -2 10 -4z m-75 -86 c-10
-11 -23 -20 -29 -20 -6 1 0 10 13 20 30 26 39 26 16 0z m-31 -62 c-3 -4 0 -8
5 -8 13 0 14 -27 2 -34 -5 -4 -22 -1 -38 5 -26 10 -27 12 -11 23 10 7 16 15
13 17 -2 3 4 5 15 5 10 0 16 -4 14 -8z m847 -446 c-13 -85 -53 -161 -120 -230
-59 -61 -116 -94 -191 -111 -60 -14 -368 -15 -354 -1 5 5 22 11 38 12 21 2 26
7 22 21 -2 11 -2 16 1 13 3 -3 14 6 25 19 25 32 38 32 39 -2 1 -21 3 -23 6 -9
6 23 33 53 33 37 0 -6 5 -11 11 -11 5 0 7 5 4 10 -3 6 -1 10 4 10 6 0 11 -6
11 -12 0 -9 3 -9 8 -2 4 5 42 26 86 44 43 19 81 40 83 47 3 7 11 13 18 13 18
0 67 75 91 140 15 41 21 86 23 164 l3 108 59 59 c32 32 59 63 59 69 0 5 5 9
12 8 7 -2 13 2 13 7 1 6 6 19 11 30 13 28 17 -353 5 -433z m-931 369 c0 -19
-18 -31 -48 -31 -12 0 -9 6 11 18 15 10 24 22 20 25 -3 4 -1 7 5 7 7 0 12 -9
12 -19z m50 -9 c0 -5 -7 -9 -15 -9 -8 0 -15 4 -15 9 0 4 7 8 15 8 8 0 15 -4
15 -8z m562 -7 c17 -7 16 -196 -1 -239 -28 -70 -102 -138 -170 -155 -20 -5
-76 -6 -124 -2 l-88 6 28 34 c15 19 41 46 57 60 50 43 119 114 166 171 25 29
53 60 63 69 9 8 17 20 17 26 0 12 20 35 31 35 4 0 13 -2 21 -5z m-848 -210
c-4 -8 -11 -15 -16 -15 -6 0 -5 6 2 15 7 8 14 15 16 15 2 0 1 -7 -2 -15z m-30
-36 c-18 -7 -17 -8 4 -10 12 -1 27 -3 32 -4 6 -1 12 -3 15 -4 6 -1 -9 -20 -58
-73 -19 -21 -32 -40 -29 -43 3 -3 0 -5 -6 -5 -6 0 -17 18 -23 41 -12 39 -12
41 19 70 18 17 32 34 32 39 0 5 8 6 17 3 15 -6 15 -7 -3 -14z m-258 -51 c40
-27 52 -42 62 -78 7 -25 19 -63 26 -85 7 -22 15 -46 17 -53 3 -9 -22 -24 -71
-43 -113 -44 -107 -44 -125 -8 -24 46 -91 115 -125 129 -34 14 -34 12 -19 82
19 88 19 88 108 88 72 0 83 -3 127 -32z m761 -20 c-7 -10 -15 -18 -19 -18 -5
0 -8 -7 -8 -15 0 -8 -8 -19 -18 -24 -19 -10 -62 -11 -62 -2 0 3 23 27 51 54
37 35 54 45 59 36 5 -7 3 -20 -3 -31z m-1755 -138 c16 -16 34 -30 39 -30 6 0
7 -4 4 -10 -3 -5 0 -7 8 -4 8 3 31 -10 52 -30 21 -20 48 -36 61 -36 19 0 24
-5 24 -24 0 -37 25 -57 62 -49 22 4 29 3 24 -5 -4 -7 -16 -12 -27 -12 -10 0
-19 -4 -19 -10 0 -6 10 -6 27 1 24 9 42 0 43 -21 0 -3 10 -6 21 -7 17 -2 19 1
10 10 -6 6 -11 24 -11 39 0 26 3 28 39 28 30 0 40 -4 44 -20 3 -11 0 -20 -6
-20 -8 0 -8 -3 0 -11 6 -6 25 -8 48 -3 32 6 36 10 32 30 l-4 24 22 -22 c12
-13 20 -27 17 -33 -2 -5 4 -1 12 9 9 11 16 23 16 28 0 4 7 8 15 8 8 0 15 -7
15 -15 0 -8 -5 -15 -11 -15 -7 0 -9 -10 -5 -25 l6 -25 -137 0 c-163 0 -231 14
-299 60 -55 37 -106 89 -99 100 3 5 -1 10 -9 13 -11 4 -56 86 -56 102 0 11 13
3 42 -25z m727 -121 c-13 -26 -23 -18 -14 10 3 12 11 19 16 16 5 -4 5 -14 -2
-26z m-152 -35 c-3 -3 -12 -4 -19 -1 -8 3 -5 6 6 6 11 1 17 -2 13 -5z m-114
-41 c-7 -2 -19 -2 -25 0 -7 3 -2 5 12 5 14 0 19 -2 13 -5z"/>
<path d="M2809 4865 c-28 -15 -59 -70 -59 -104 0 -39 28 -89 59 -105 58 -31
140 -14 175 36 20 28 20 90 1 128 -28 55 -117 77 -176 45z m115 -61 c9 -8 16
-31 16 -50 0 -30 -5 -37 -32 -48 -69 -29 -121 42 -75 102 13 17 73 15 91 -4z"/>
<path d="M3112 4763 l3 -118 25 0 c21 0 26 5 28 33 4 40 22 41 44 2 19 -33 40
-45 64 -36 14 5 13 9 -2 36 -17 27 -17 30 -1 48 10 11 17 35 17 58 -1 67 -37
94 -125 94 l-56 0 3 -117z m121 36 c16 -26 1 -49 -33 -49 -28 0 -30 3 -30 36
0 32 2 35 26 32 15 -2 32 -10 37 -19z"/>
<path d="M3392 4764 c3 -135 2 -133 96 -119 68 10 102 49 102 114 0 42 -5 56
-29 83 -26 30 -35 33 -100 36 l-72 4 3 -118z m126 36 c26 -24 28 -47 6 -78
-10 -14 -25 -22 -45 -22 -29 0 -29 0 -29 60 0 56 2 60 23 60 13 0 33 -9 45
-20z"/>
<path d="M3700 4760 l0 -121 83 3 c80 3 82 4 82 28 0 23 -4 25 -53 28 -44 3
-53 6 -50 20 2 12 15 18 40 20 29 3 36 7 35 23 -1 15 -9 19 -39 19 -34 0 -38
3 -38 25 0 23 3 25 50 25 47 0 50 2 50 25 0 25 -1 25 -80 25 l-80 0 0 -120z"/>
<path d="M3970 4765 l0 -115 30 0 c26 0 30 3 30 29 0 38 28 33 52 -10 12 -20
25 -29 43 -29 29 0 30 2 9 41 -13 27 -14 32 -1 42 37 30 23 122 -21 146 -12 6
-48 11 -81 11 l-61 0 0 -115z m118 43 c28 -28 8 -58 -39 -58 -15 0 -19 7 -19
35 0 30 3 35 23 35 13 0 28 -5 35 -12z"/>
<path d="M4272 4864 c-48 -33 -19 -108 51 -130 31 -10 36 -24 13 -39 -10 -6
-26 -4 -49 7 -37 18 -47 15 -47 -13 0 -43 83 -63 140 -34 61 31 47 94 -27 126
-26 11 -43 24 -40 32 4 13 21 14 47 3 9 -4 24 0 35 9 20 15 20 15 -4 35 -28
24 -87 26 -119 4z"/>
<path d="M2647 4482 c-22 -25 -21 -48 3 -72 20 -20 33 -20 838 -20 781 0 820
1 835 18 23 26 21 58 -5 76 -20 14 -116 16 -839 16 -778 0 -817 -1 -832 -18z"/>
<path d="M2646 3734 c-20 -19 -20 -44 -2 -70 13 -18 30 -19 258 -22 134 -1
349 1 478 5 l235 8 9 27 c8 22 6 32 -9 48 -18 20 -28 20 -486 20 -412 0 -469
-2 -483 -16z"/>
<path d="M4705 3810 c-3 -5 -1 -10 4 -10 6 0 11 5 11 10 0 6 -2 10 -4 10 -3 0
-8 -4 -11 -10z"/>
<path d="M4050 3130 c-13 -8 -12 -10 3 -10 9 0 17 5 17 10 0 12 -1 12 -20 0z"/>
<path d="M3706 2771 c-4 -5 -2 -12 3 -15 5 -4 12 -2 15 3 4 5 2 12 -3 15 -5 4
-12 2 -15 -3z"/>
<path d="M2883 2363 c15 -2 39 -2 55 0 15 2 2 4 -28 4 -30 0 -43 -2 -27 -4z"/>
<path d="M5260 2961 c0 -22 5 -43 10 -46 6 -4 10 12 10 39 0 25 -4 46 -10 46
-5 0 -10 -18 -10 -39z"/>
<path d="M5280 2890 c0 -5 -6 -10 -12 -10 -10 0 -13 -32 -11 -132 3 -200 5
-236 11 -208 l5 25 7 -25 c4 -14 8 62 9 168 1 105 -1 192 -4 192 -3 0 -5 -4
-5 -10z"/>
<path d="M5282 2390 c0 -19 2 -27 5 -17 2 9 2 25 0 35 -3 9 -5 1 -5 -18z"/>
</g>
</svg>
